STARTFONT 2.1
FONT -MIT-S25HBR KST-Medium-R-Normal--45-16-200-200-P-13-ISO8859-1
SIZE 16 200 200
FONTBOUNDINGBOX 17 45 -8 -13
STARTPROPERTIES 17
ADD_STYLE_NAME ""
AVERAGE_WIDTH 13
CHARSET_ENCODING "1"
CHARSET_REGISTRY "ISO8859"
DEFAULT_CHAR 0
FAMILY "S25HBR KST"
FONT_ASCENT 32
FONT_DESCENT 13
FOUNDRY "MIT"
PIXEL_SIZE 45
POINT_SIZE 16
RESOLUTION_X 200
RESOLUTION_Y 200
SETWIDTH_NAME "Normal"
SLANT "R"
SPACING "P"
WEIGHT_NAME "Medium"
ENDPROPERTIES
CHARS 68
STARTCHAR char2
ENCODING 2
SWIDTH 1116 0
DWIDTH 18 0
BBX 15 45 0 -13
BITMAP
0000
0000
0000
0000
0000
0000
0000
0000
0000
0000
0000
4020
C030
C038
E07C
F07E
F83E
FC1E
FE1E
7F96
3FF2
5FF0
4FF8
C3FC
E1FE
F07E
F81E
F80E
7806
7C06
7C06
FC04
0000
1FF8
1FF8
0000
0000
0000
0000
0000
0000
0000
0000
0000
0000
ENDCHAR
STARTCHAR char4
ENCODING 4
SWIDTH 248 0
DWIDTH 4 0
BBX 1 45 0 -13
BITMAP
00
00
00
00
00
00
00
00
00
00
00
00
00
00
00
00
00
00
00
00
00
00
00
00
00
00
00
00
00
00
00
00
00
00
00
00
00
00
00
00
00
00
00
00
00
ENDCHAR
STARTCHAR char7
ENCODING 7
SWIDTH 1178 0
DWIDTH 19 0
BBX 16 45 0 -13
BITMAP
0000
0000
0000
0000
0000
0000
0000
0000
0000
0000
0000
2000
7FF0
7FF8
7FFC
7FFC
3FFC
001C
0004
0104
0384
07C4
0384
0104
0004
0004
3FFF
3FFF
7FFE
7FFE
FFFC
FFFC
0000
0000
0000
0000
0000
0000
0000
0000
0000
0000
0000
0000
0000
ENDCHAR
STARTCHAR char8
ENCODING 8
SWIDTH 0 0
DWIDTH 0 0
BBX 4 45 5 -13
BITMAP
00
00
00
00
00
00
00
00
00
00
00
00
00
00
00
00
00
00
00
00
00
00
00
00
00
00
00
00
00
00
00
00
00
00
60
F0
F0
60
00
60
F0
F0
60
00
00
ENDCHAR
STARTCHAR char15
ENCODING 15
SWIDTH 1178 0
DWIDTH 19 0
BBX 16 45 0 -13
BITMAP
0000
0000
0000
0000
0000
0000
0000
0000
0000
0000
0000
4000
FFFE
FFFF
FFFF
FFFF
7FFE
3FFE
0004
0004
0004
0004
0004
0004
0004
0004
0004
0004
0004
0004
000C
000C
000C
000C
000C
000C
000C
0004
0004
0004
0004
0000
0000
0000
0000
ENDCHAR
STARTCHAR char16
ENCODING 16
SWIDTH 0 0
DWIDTH 0 0
BBX 12 45 2 -13
BITMAP
0000
0000
0000
0000
0000
0000
0000
0000
0000
0000
0000
0000
0000
0000
0000
0000
0000
0000
0000
0000
0000
0000
0000
0000
0000
0000
0000
0000
0000
0000
0000
0000
0000
6060
F0F0
F0F0
6060
0000
0600
0F00
0F00
0600
0000
0000
0000
ENDCHAR
STARTCHAR char17
ENCODING 17
SWIDTH 0 0
DWIDTH 0 0
BBX 4 45 5 -13
BITMAP
00
00
00
00
00
00
00
00
00
00
00
00
00
00
00
00
00
00
00
00
00
00
00
00
00
00
00
00
00
00
00
00
00
00
60
F0
F0
60
00
00
00
00
00
00
00
ENDCHAR
STARTCHAR char18
ENCODING 18
SWIDTH 0 0
DWIDTH 0 0
BBX 4 45 2 -13
BITMAP
00
00
00
00
00
00
00
60
F0
F0
60
00
00
00
00
00
00
00
00
00
00
00
00
00
00
00
00
00
00
00
00
00
00
00
00
00
00
00
00
00
00
00
00
00
00
ENDCHAR
STARTCHAR char19
ENCODING 19
SWIDTH 0 0
DWIDTH 0 0
BBX 12 45 2 -13
BITMAP
0000
0000
0000
0000
0000
0000
0000
0000
0000
0000
0000
0000
0000
0000
0000
0000
0000
0000
0000
0000
0000
0000
0000
0000
0000
0000
0000
0000
0000
0000
0000
0000
0000
6000
F000
F000
6600
0F00
0F00
0660
00F0
00F0
0060
0000
0000
ENDCHAR
STARTCHAR char24
ENCODING 24
SWIDTH 0 0
DWIDTH 0 0
BBX 10 45 4 -13
BITMAP
0000
0000
0000
0000
0000
0000
0000
0000
0000
0000
0000
0000
0000
0000
0000
0000
0000
0000
0000
0000
0000
0000
0000
0000
0000
0000
0000
0000
0000
0000
0000
0000
0000
FFC0
FFC0
0000
0000
0000
0000
0000
0000
0000
0000
0000
0000
ENDCHAR
STARTCHAR char30
ENCODING 30
SWIDTH 0 0
DWIDTH 0 0
BBX 11 45 2 -13
BITMAP
0000
0000
0000
0000
0000
0000
0000
0000
0000
0000
0000
0000
0000
0000
0000
0000
0000
0000
0000
0000
0000
0000
0000
0000
0000
0000
0000
0000
0000
0000
0000
0000
0000
60C0
F1E0
F1E0
60C0
0000
0000
0000
0000
0000
0000
0000
0000
ENDCHAR
STARTCHAR char32
ENCODING 32
SWIDTH 868 0
DWIDTH 14 0
BBX 1 45 0 -13
BITMAP
00
00
00
00
00
00
00
00
00
00
00
00
00
00
00
00
00
00
00
00
00
00
00
00
00
00
00
00
00
00
00
00
00
00
00
00
00
00
00
00
00
00
00
00
00
ENDCHAR
STARTCHAR char33
ENCODING 33
SWIDTH 930 0
DWIDTH 15 0
BBX 3 45 8 -13
BITMAP
00
00
00
00
00
00
00
00
00
00
E0
E0
E0
E0
E0
E0
E0
E0
E0
E0
E0
E0
E0
E0
E0
00
00
00
E0
E0
E0
E0
00
00
00
00
00
00
00
00
00
00
00
00
00
ENDCHAR
STARTCHAR char34
ENCODING 34
SWIDTH 682 0
DWIDTH 11 0
BBX 6 45 3 -13
BITMAP
00
00
00
00
00
00
00
00
00
00
1C
3C
38
38
78
70
70
F0
E0
00
00
00
00
00
00
00
00
00
00
00
00
00
00
00
00
00
00
00
00
00
00
00
00
00
00
ENDCHAR
STARTCHAR char37
ENCODING 37
SWIDTH 1054 0
DWIDTH 17 0
BBX 14 45 0 -13
BITMAP
0000
0000
0000
0000
0000
0000
0000
0000
0000
0000
0000
2000
7FE0
7FF8
7FF8
7FFC
7FFC
403C
400C
4004
F804
FC04
FC04
7C04
0004
0004
0004
0004
0004
0004
000C
000C
000C
000C
000C
000C
0004
0004
0004
0004
0004
0000
0000
0000
0000
ENDCHAR
STARTCHAR char38
ENCODING 38
SWIDTH 1116 0
DWIDTH 18 0
BBX 14 45 1 -13
BITMAP
0000
0000
0000
0000
0000
0000
0000
0000
0000
0000
0000
8020
F078
F07C
F87C
F87C
783C
183C
0824
0C20
0FA0
0FF0
07F0
01F8
0078
003C
003C
3FFC
7FFC
7FFC
7FFC
FFF8
0000
0000
0000
0000
0000
0000
0000
0000
0000
0000
0000
0000
0000
ENDCHAR
STARTCHAR char39
ENCODING 39
SWIDTH 620 0
DWIDTH 10 0
BBX 8 45 0 -13
BITMAP
00
00
00
00
00
00
00
00
00
00
00
00
00
00
00
00
00
00
00
00
00
00
00
00
00
00
00
00
00
E7
E7
E7
E7
E7
E7
E7
E7
00
00
00
00
00
00
00
00
ENDCHAR
STARTCHAR char40
ENCODING 40
SWIDTH 682 0
DWIDTH 11 0
BBX 6 45 1 -13
BITMAP
00
00
00
00
00
00
00
00
04
0C
1C
38
38
70
70
70
E0
E0
E0
E0
E0
E0
E0
E0
E0
E0
F0
70
70
70
38
38
1C
0C
04
00
00
00
00
00
00
00
00
00
00
ENDCHAR
STARTCHAR char41
ENCODING 41
SWIDTH 868 0
DWIDTH 14 0
BBX 6 45 4 -13
BITMAP
00
00
00
00
00
00
00
00
80
C0
E0
70
70
38
38
38
1C
1C
1C
1C
1C
1C
1C
1C
1C
1C
3C
38
38
38
70
70
E0
C0
80
00
00
00
00
00
00
00
00
00
00
ENDCHAR
STARTCHAR char43
ENCODING 43
SWIDTH 1116 0
DWIDTH 18 0
BBX 15 45 0 -13
BITMAP
0000
0000
0000
0000
0000
0000
0000
0000
0000
0000
0000
4010
783C
F83E
7C3E
7C3E
3C1E
0C1E
0412
0430
0420
0460
0440
04C0
0580
0780
0700
0600
0600
0600
0600
0600
0600
0600
0600
0600
0400
0400
0400
0400
0400
0000
0000
0000
0000
ENDCHAR
STARTCHAR char44
ENCODING 44
SWIDTH 806 0
DWIDTH 13 0
BBX 5 45 5 -13
BITMAP
00
00
00
00
00
00
00
00
00
00
00
00
00
00
00
00
00
00
00
00
00
00
00
00
00
00
00
00
70
F8
F8
78
38
30
60
40
00
00
00
00
00
00
00
00
00
ENDCHAR
STARTCHAR char45
ENCODING 45
SWIDTH 806 0
DWIDTH 13 0
BBX 11 45 0 -13
BITMAP
0000
0000
0000
0000
0000
0000
0000
0000
0000
0000
0000
0000
0000
FFE0
FFE0
FFE0
FFE0
0000
0000
0000
0000
0000
0000
0000
0000
0000
0000
0000
0000
0000
0000
0000
0000
0000
0000
0000
0000
0000
0000
0000
0000
0000
0000
0000
0000
ENDCHAR
STARTCHAR char46
ENCODING 46
SWIDTH 806 0
DWIDTH 13 0
BBX 5 45 5 -13
BITMAP
00
00
00
00
00
00
00
00
00
00
00
00
00
00
00
00
00
00
00
00
00
00
00
00
00
00
00
70
F8
F8
F8
70
00
00
00
00
00
00
00
00
00
00
00
00
00
ENDCHAR
STARTCHAR char49
ENCODING 49
SWIDTH 868 0
DWIDTH 14 0
BBX 1 45 0 -13
BITMAP
00
00
00
00
00
00
00
00
00
00
00
00
00
00
00
00
00
00
00
00
00
00
00
00
00
00
00
00
00
00
00
00
00
00
00
00
00
00
00
00
00
00
00
00
00
ENDCHAR
STARTCHAR char50
ENCODING 50
SWIDTH 0 0
DWIDTH 0 0
BBX 10 45 3 -13
BITMAP
0000
0000
0000
0000
0000
0000
0000
0000
0000
0000
0000
0000
0000
0000
0000
0000
0000
0000
0000
0000
0000
0000
0000
0000
0000
0000
0000
0000
0000
0000
0000
0000
0000
FFC0
FFC0
1E00
1E00
1E00
0000
0000
0000
0000
0000
0000
0000
ENDCHAR
STARTCHAR char58
ENCODING 58
SWIDTH 868 0
DWIDTH 14 0
BBX 5 45 5 -13
BITMAP
00
00
00
00
00
00
00
00
00
00
00
00
00
00
00
00
00
00
70
F8
F8
F8
70
00
00
00
70
F8
F8
F8
70
00
00
00
00
00
00
00
00
00
00
00
00
00
00
ENDCHAR
STARTCHAR char59
ENCODING 59
SWIDTH 868 0
DWIDTH 14 0
BBX 5 45 5 -13
BITMAP
00
00
00
00
00
00
00
00
00
00
00
00
00
00
00
00
00
00
00
70
F8
F8
F8
70
00
00
00
00
70
F8
F8
78
38
30
60
40
00
00
00
00
00
00
00
00
00
ENDCHAR
STARTCHAR char63
ENCODING 63
SWIDTH 1116 0
DWIDTH 18 0
BBX 12 45 3 -13
BITMAP
0000
0000
0000
0000
0000
0000
0000
0000
0000
1F00
3F80
7FC0
F1E0
E0F0
E070
E070
0070
00F0
01E0
03C0
0780
0F00
0E00
0E00
0E00
0E00
0000
0000
0000
0E00
0E00
0E00
0000
0000
0000
0000
0000
0000
0000
0000
0000
0000
0000
0000
0000
ENDCHAR
STARTCHAR char65
ENCODING 65
SWIDTH 1116 0
DWIDTH 18 0
BBX 15 45 0 -13
BITMAP
0000
0000
0000
0000
0000
0000
0000
0000
0000
0000
0000
4020
C030
C038
E07C
F07E
F83E
FC1E
FE1E
7F96
3FF2
5FF0
4FF8
C3FC
E1FE
F07E
F81E
F80E
7806
7C06
7C06
FC04
0004
0000
0000
0000
0000
0000
0000
0000
0000
0000
0000
0000
0000
ENDCHAR
STARTCHAR char66
ENCODING 66
SWIDTH 1178 0
DWIDTH 19 0
BBX 16 45 0 -13
BITMAP
0000
0000
0000
0000
0000
0000
0000
0000
0000
0000
0000
2000
7FF0
7FF8
7FFC
7FFC
3FFC
001C
0004
0004
0004
0004
0004
0004
0004
0004
3FFF
3FFF
7FFE
7FFE
FFFC
FFFC
0000
0000
0000
0000
0000
0000
0000
0000
0000
0000
0000
0000
0000
ENDCHAR
STARTCHAR char67
ENCODING 67
SWIDTH 1116 0
DWIDTH 18 0
BBX 15 45 0 -13
BITMAP
0000
0000
0000
0000
0000
0000
0000
0000
0000
0000
0000
4000
FFC0
FFF0
FFF8
FFFC
7FFC
7FFE
601E
4006
4006
4002
4002
4002
4002
4002
7FFE
7FFE
7FFC
7FF8
7FF0
7FE0
0000
0000
0000
0000
0000
0000
0000
0000
0000
0000
0000
0000
0000
ENDCHAR
STARTCHAR char68
ENCODING 68
SWIDTH 1178 0
DWIDTH 19 0
BBX 16 45 0 -13
BITMAP
0000
0000
0000
0000
0000
0000
0000
0000
0000
0000
0000
4000
FFFE
FFFF
FFFF
7FFF
3FFE
0004
0004
0004
0004
0004
0004
0004
0006
0006
0006
0006
0006
0004
0004
0004
0000
0000
0000
0000
0000
0000
0000
0000
0000
0000
0000
0000
0000
ENDCHAR
STARTCHAR char69
ENCODING 69
SWIDTH 1116 0
DWIDTH 18 0
BBX 15 45 0 -13
BITMAP
0000
0000
0000
0000
0000
0000
0000
0000
0000
0000
0000
8020
F030
F87C
F87E
F87E
783C
381C
280C
2008
2008
3008
1008
1008
1818
0830
0870
0CF0
07F0
07F0
1FE0
3FC0
7F80
FE00
FC00
F800
E000
C000
8000
0000
0000
0000
0000
0000
0000
ENDCHAR
STARTCHAR char70
ENCODING 70
SWIDTH 1054 0
DWIDTH 17 0
BBX 14 45 0 -13
BITMAP
0000
0000
0000
0000
0000
0000
0000
0000
7FFC
7FFC
0000
2000
7FE0
7FF8
7FF8
7FFC
7FFC
403C
400C
4004
F804
FC04
FC04
7C04
0004
0004
0004
7FFC
7FFC
FFFC
FFF8
FFF0
0000
0000
0000
0000
0000
0000
0000
0000
0000
0000
0000
0000
0000
ENDCHAR
STARTCHAR char71
ENCODING 71
SWIDTH 806 0
DWIDTH 13 0
BBX 10 45 0 -13
BITMAP
0000
0000
0000
0000
0000
0000
0000
0000
0000
0000
0000
4000
7E00
7F00
7F00
3F00
0F00
0100
0100
0100
0100
0100
0100
0300
0300
0300
7F80
FDC0
F8C0
F8C0
F8C0
F8C0
0000
0000
0000
0000
0000
0000
0000
0000
0000
0000
0000
0000
0000
ENDCHAR
STARTCHAR char72
ENCODING 72
SWIDTH 1178 0
DWIDTH 19 0
BBX 16 45 0 -13
BITMAP
0000
0000
0000
0000
0000
0000
0000
0000
0000
0000
0000
4000
FFFE
FFFF
FFFF
7FFF
3FFE
0004
0004
0004
0004
0004
3004
6004
6006
6006
6006
6006
6006
6004
6004
C004
0000
0000
0000
0000
0000
0000
0000
0000
0000
0000
0000
0000
0000
ENDCHAR
STARTCHAR char73
ENCODING 73
SWIDTH 1054 0
DWIDTH 17 0
BBX 14 45 0 -13
BITMAP
0000
0000
0000
0000
0000
0000
0000
0000
0000
0000
0000
8080
F8F8
FCFC
FCFC
FCFC
7C7C
0C0C
0404
0404
0404
0404
0404
0000
0000
0000
0000
0000
0000
0000
0000
0000
0000
1FF8
1FF8
0000
0000
0000
0000
0000
0000
0000
0000
0000
0000
ENDCHAR
STARTCHAR char74
ENCODING 74
SWIDTH 1116 0
DWIDTH 18 0
BBX 15 45 0 -13
BITMAP
0000
0000
0000
0000
0000
0000
0000
0000
0000
0000
0000
8020
F030
F87C
F87E
F87E
783C
381C
280C
2008
2008
3008
1008
1008
1818
0830
0870
0CF0
07F0
07F0
1FE0
3FC0
7F80
FE00
FC00
F800
E000
C000
8000
0000
0000
0000
0000
0000
0000
ENDCHAR
STARTCHAR char75
ENCODING 75
SWIDTH 1178 0
DWIDTH 19 0
BBX 16 45 0 -13
BITMAP
0000
0000
0000
0000
0000
0000
0000
0000
0000
0000
0000
2000
7FF0
7FFC
7FFC
7FFE
3FFE
001F
0003
0001
0001
0001
0001
0001
0001
0001
3FFF
3FFF
7FFE
7FFE
FFFC
FFF8
0000
0000
0000
0000
0000
0000
0000
0000
0000
0000
0000
0000
0000
ENDCHAR
STARTCHAR char76
ENCODING 76
SWIDTH 1054 0
DWIDTH 17 0
BBX 14 45 0 -13
BITMAP
4000
E000
4000
4000
4000
4000
C000
C000
C000
8000
8000
C000
FFF8
FFFC
FFFC
FFFC
7FFC
000C
0004
0004
0004
000C
0008
0018
0030
0060
00C0
0380
0300
0700
0600
0200
0000
0000
0000
0000
0000
0000
0000
0000
0000
0000
0000
0000
0000
ENDCHAR
STARTCHAR char77
ENCODING 77
SWIDTH 1178 0
DWIDTH 19 0
BBX 16 45 0 -13
BITMAP
0000
0000
0000
0000
0000
0000
0000
0000
0000
0000
0000
4040
60F0
F1FC
F9FE
FDFE
FFFF
700F
2007
6003
4003
4001
C001
C001
C001
C001
C7FF
CFFF
CFFF
9FFE
9FFE
3FFC
0000
0000
0000
0000
0000
0000
0000
0000
0000
0000
0000
0000
0000
ENDCHAR
STARTCHAR char78
ENCODING 78
SWIDTH 682 0
DWIDTH 11 0
BBX 8 45 0 -13
BITMAP
00
00
00
00
00
00
00
00
00
00
00
40
7E
7F
7F
3F
0F
01
01
01
01
01
01
01
01
01
7F
FF
FF
FF
FF
FE
00
00
00
00
00
00
00
00
00
00
00
00
00
ENDCHAR
STARTCHAR char79
ENCODING 79
SWIDTH 620 0
DWIDTH 10 0
BBX 8 45 0 -13
BITMAP
00
00
00
00
00
00
00
60
F0
F0
60
20
7C
7E
7F
7F
3F
1F
03
01
01
01
01
01
03
03
03
03
03
03
01
01
00
00
00
00
00
00
00
00
00
00
00
00
00
ENDCHAR
STARTCHAR char80
ENCODING 80
SWIDTH 1054 0
DWIDTH 17 0
BBX 14 45 0 -13
BITMAP
0000
0000
0000
0000
0000
0000
0000
0000
0000
0000
0000
2000
7FE0
7FF8
7FF8
7FFC
7FFC
403C
400C
4004
F804
FC04
FC04
7C04
0004
0004
0004
7FFC
7FFC
FFFC
FFF8
FFF0
0000
0000
0000
0000
0000
0000
0000
0000
0000
0000
0000
0000
0000
ENDCHAR
STARTCHAR char81
ENCODING 81
SWIDTH 1116 0
DWIDTH 18 0
BBX 14 45 1 -13
BITMAP
0000
0000
0000
0000
0000
0000
0000
0000
0000
0000
0000
4000
FFC0
FFF0
FFF0
FFF8
7FF8
0008
0008
4004
8004
8004
8004
8004
8008
8008
8008
8070
83E0
8F00
9800
D000
C000
C000
C000
C000
C000
C000
8000
8000
8000
0000
0000
0000
0000
ENDCHAR
STARTCHAR char82
ENCODING 82
SWIDTH 1116 0
DWIDTH 18 0
BBX 15 45 0 -13
BITMAP
0000
0000
0000
0000
0000
0000
0000
0000
0000
0000
0000
4000
FFF8
FFFC
FFFE
7FFE
3FFE
0002
0002
0002
0002
0002
0002
0006
0006
0006
0006
0006
0006
0002
0002
0002
0000
0000
0000
0000
0000
0000
0000
0000
0000
0000
0000
0000
0000
ENDCHAR
STARTCHAR char83
ENCODING 83
SWIDTH 1240 0
DWIDTH 20 0
BBX 17 45 0 -13
BITMAP
000000
000000
000000
000000
000000
000000
000000
000000
000000
000000
000000
810400
E18600
F1C700
F1E780
F9E780
79E780
39C300
290100
410100
420200
440200
440400
480400
480400
480400
7FFC00
7FFC00
7FFC00
7FFC00
7FFC00
7FFC00
000000
000000
000000
000000
000000
000000
000000
000000
000000
000000
000000
000000
000000
ENDCHAR
STARTCHAR char84
ENCODING 84
SWIDTH 1240 0
DWIDTH 20 0
BBX 17 45 0 -13
BITMAP
000000
000000
000000
000000
000000
000000
000000
000000
000000
000000
000000
400000
E00000
F87800
FCFC00
FCFE00
FCFF00
7CFF00
158780
218380
218180
618080
610080
600080
600080
600080
200100
3FFF00
3FFF00
3FFF00
1FFE00
1FFE00
000000
000000
000000
000000
000000
000000
000000
000000
000000
000000
000000
000000
000000
ENDCHAR
STARTCHAR char85
ENCODING 85
SWIDTH 620 0
DWIDTH 10 0
BBX 7 45 0 -13
BITMAP
00
00
00
00
00
00
00
00
00
00
00
40
F8
FC
FE
FE
7E
3E
06
02
02
62
F2
F2
66
06
06
06
06
06
02
02
00
00
00
00
00
00
00
00
00
00
00
00
00
ENDCHAR
STARTCHAR char86
ENCODING 86
SWIDTH 620 0
DWIDTH 10 0
BBX 7 45 0 -13
BITMAP
00
00
00
00
00
00
00
00
00
00
00
40
F8
FC
FE
FE
7E
3E
06
02
02
02
02
02
06
06
06
06
06
06
02
02
00
00
00
00
00
00
00
00
00
00
00
00
00
ENDCHAR
STARTCHAR char87
ENCODING 87
SWIDTH 1178 0
DWIDTH 19 0
BBX 16 45 0 -13
BITMAP
0000
0000
0000
0000
0000
0000
0000
0000
0000
0000
0000
1000
3FFC
3FFE
3FFF
3FFF
3FFF
1803
1001
2001
2001
2001
2001
3003
3003
1803
3803
7803
7803
7801
F801
F001
0000
0000
0000
0000
0000
0000
0000
0000
0000
0000
0000
0000
0000
ENDCHAR
STARTCHAR char88
ENCODING 88
SWIDTH 1240 0
DWIDTH 20 0
BBX 17 45 0 -13
BITMAP
000000
000000
000000
000000
000000
000000
000000
000000
000000
000000
000000
400000
FFFF00
FFFF80
FFFF80
7FFF80
3FFF00
300200
300200
200200
200200
200200
200200
200300
200300
200300
200300
200300
200300
200200
200200
400200
000000
000000
000000
000000
000000
000000
000000
000000
000000
000000
000000
000000
000000
ENDCHAR
STARTCHAR char89
ENCODING 89
SWIDTH 558 0
DWIDTH 9 0
BBX 6 45 0 -13
BITMAP
00
00
00
00
00
00
00
00
00
00
00
80
F8
FC
FC
FC
7C
0C
04
04
04
04
04
00
00
00
00
00
00
00
00
00
00
00
00
00
00
00
00
00
00
00
00
00
00
ENDCHAR
STARTCHAR char90
ENCODING 90
SWIDTH 620 0
DWIDTH 10 0
BBX 8 45 0 -13
BITMAP
00
00
00
00
00
00
00
00
00
00
00
80
E0
F8
FC
FE
FF
7F
3F
1F
13
11
10
10
18
18
18
18
18
18
10
10
00
00
00
00
00
00
00
00
00
00
00
00
00
ENDCHAR
STARTCHAR char96
ENCODING 96
SWIDTH 930 0
DWIDTH 15 0
BBX 8 45 5 -13
BITMAP
00
00
00
00
00
00
00
00
00
00
E7
E7
E7
E7
E7
E7
E7
E7
00
00
00
00
00
00
00
00
00
00
00
00
00
00
00
00
00
00
00
00
00
00
00
00
00
00
00
ENDCHAR
STARTCHAR char97
ENCODING 97
SWIDTH 1116 0
DWIDTH 18 0
BBX 15 45 0 -13
BITMAP
0000
0000
0000
0000
0000
0000
0000
0000
0000
0000
0000
4020
C030
C038
E07C
F07E
F83E
FC1E
FE1E
7F96
3FF2
5FF0
4FF8
C3FC
E1FE
F07E
F81E
F80E
7806
7C06
7C06
FC04
0000
1FF8
1FF8
03C0
03C0
03C0
0000
0000
0000
0000
0000
0000
0000
ENDCHAR
STARTCHAR char98
ENCODING 98
SWIDTH 1178 0
DWIDTH 19 0
BBX 16 45 0 -13
BITMAP
0000
0000
0000
0000
0000
0000
0000
0000
7FFE
7FFE
0000
2000
7FF0
7FF8
7FFC
7FFC
3FFC
001C
0004
0004
0004
0004
0004
0004
0004
0004
3FFF
3FFF
7FFE
7FFE
FFFC
FFFC
0000
0000
0000
0000
0000
0000
0000
0000
0000
0000
0000
0000
0000
ENDCHAR
STARTCHAR char102
ENCODING 102
SWIDTH 1054 0
DWIDTH 17 0
BBX 14 45 0 -13
BITMAP
0000
0000
0000
0000
0000
0000
0000
0000
0000
0000
0000
2000
7FE0
7FF8
7FF8
7FFC
7FFC
403C
400C
4004
F804
FC04
FC04
7C04
0004
0004
0004
0004
0004
0004
000C
000C
000C
000C
000C
000C
0004
0004
0004
0004
0004
0000
0000
0000
0000
ENDCHAR
STARTCHAR char105
ENCODING 105
SWIDTH 558 0
DWIDTH 9 0
BBX 6 45 0 -13
BITMAP
00
00
00
00
00
00
00
00
00
00
00
80
F8
FC
FC
FC
7C
0C
04
04
04
04
04
00
00
00
00
00
00
00
00
00
00
00
18
3C
3C
18
00
00
00
00
00
00
00
ENDCHAR
STARTCHAR char107
ENCODING 107
SWIDTH 1178 0
DWIDTH 19 0
BBX 16 45 0 -13
BITMAP
0000
0000
0000
0000
0000
0000
0000
0000
0000
0000
0000
2000
7FF0
7FFC
7FFC
7FFE
3FFE
001F
0003
0081
01C1
03E1
01C1
0081
0001
0001
3FFF
3FFF
7FFE
7FFE
FFFC
FFF8
0000
0000
0000
0000
0000
0000
0000
0000
0000
0000
0000
0000
0000
ENDCHAR
STARTCHAR char108
ENCODING 108
SWIDTH 1054 0
DWIDTH 17 0
BBX 14 45 0 -13
BITMAP
0000
0000
0000
0000
0000
0000
0008
7FFC
C008
8000
8000
C000
FFF8
FFFC
FFFC
FFFC
7FFC
000C
0004
0004
0004
000C
0008
0018
0030
0060
00C0
0380
0300
0700
0600
0200
0000
0000
0000
0000
0000
0000
0000
0000
0000
0000
0000
0000
0000
ENDCHAR
STARTCHAR char109
ENCODING 109
SWIDTH 1116 0
DWIDTH 18 0
BBX 15 45 0 -13
BITMAP
0000
0000
0000
0000
0000
0000
0000
0000
0000
0000
0000
4000
FFFC
FFFE
FFFE
FFFE
FFFE
7FFE
4006
4002
4002
4002
4002
4002
4002
4002
7FFE
7FFE
7FFE
7FFE
7FFE
7FFE
0000
0000
0000
0000
0000
0000
0000
0000
0000
0000
0000
0000
0000
ENDCHAR
STARTCHAR char110
ENCODING 110
SWIDTH 496 0
DWIDTH 8 0
BBX 5 45 0 -13
BITMAP
00
00
00
00
00
00
00
00
00
00
00
80
F0
F8
F8
F8
F8
18
08
08
08
08
08
08
08
08
08
18
18
18
18
18
18
08
08
08
08
08
08
08
00
00
00
00
00
ENDCHAR
STARTCHAR char112
ENCODING 112
SWIDTH 1054 0
DWIDTH 17 0
BBX 14 45 0 -13
BITMAP
0000
0000
0000
0000
0000
0000
0000
0000
0000
0000
0000
2000
7FE0
7FF8
7FF8
7FFC
7FFC
403C
400C
4044
F8E4
FDF4
FCE4
7C44
0004
0004
0004
7FFC
7FFC
FFFC
FFF8
FFF0
0000
0000
0000
0000
0000
0000
0000
0000
0000
0000
0000
0000
0000
ENDCHAR
STARTCHAR char115
ENCODING 115
SWIDTH 1240 0
DWIDTH 20 0
BBX 17 45 0 -13
BITMAP
000000
000000
000000
000000
000000
000000
000000
600000
F00000
F00000
600000
810400
E18600
F1C700
F1E780
F9E780
79E780
39C300
290100
410100
420200
440200
440400
480400
480400
480400
7FFC00
7FFC00
7FFC00
7FFC00
7FFC00
7FFC00
000000
000000
000000
000000
000000
000000
000000
000000
000000
000000
000000
000000
000000
ENDCHAR
STARTCHAR char118
ENCODING 118
SWIDTH 1178 0
DWIDTH 19 0
BBX 16 45 0 -13
BITMAP
0000
0000
0000
0000
0000
0000
0000
0000
0000
0000
0000
4020
F87C
FC7E
FE7F
FE7F
7E3F
3E1F
0603
0201
0201
0201
0201
0201
0603
0603
0603
0603
0603
0603
0201
0201
0000
0000
0000
0000
0000
0000
0000
0000
0000
0000
0000
0000
0000
ENDCHAR
STARTCHAR char119
ENCODING 119
SWIDTH 1178 0
DWIDTH 19 0
BBX 16 45 0 -13
BITMAP
0000
0000
0000
0000
0000
0000
0000
0000
0000
0000
0000
1000
3FFC
3FFE
3FFF
3FFF
3FFF
1803
1001
2001
2041
20E1
21F1
30E3
3043
1803
3803
7803
7803
7801
F801
F001
0000
0000
0000
0000
0000
0000
0000
0000
0000
0000
0000
0000
0000
ENDCHAR
STARTCHAR char121
ENCODING 121
SWIDTH 1054 0
DWIDTH 17 0
BBX 14 45 0 -13
BITMAP
0000
0000
0000
0000
0000
0000
0000
0000
0000
0000
0000
8080
F8F8
FCFC
FCFC
FCFC
7C7C
0C0C
0404
0404
0404
0404
0404
0000
0000
0000
0000
0000
0000
0000
0000
0000
0000
0000
0000
0000
0000
0000
0000
0000
0000
0000
0000
0000
0000
ENDCHAR
ENDFONT
